<?xml version="1.0" encoding="UTF-8" standalone="no"?><svg xmlns="http://www.w3.org/2000/svg" xmlns:xlink="http://www.w3.org/1999/xlink" contentScriptType="application/ecmascript" contentStyleType="text/css" height="392px" preserveAspectRatio="none" style="width:374px;height:392px;" version="1.1" viewBox="0 0 374 392" width="374px" zoomAndPan="magnify"><defs><filter height="300%" id="f1pguv4cgtxmto" width="300%" x="-1" y="-1"><feGaussianBlur result="blurOut" stdDeviation="2.0"/><feColorMatrix in="blurOut" result="blurOut2" type="matrix" values="0 0 0 0 0 0 0 0 0 0 0 0 0 0 0 0 0 0 .4 0"/><feOffset dx="4.0" dy="4.0" in="blurOut2" result="blurOut3"/><feBlend in="SourceGraphic" in2="blurOut3" mode="normal"/></filter></defs><g><!--MD5=[fea3dc74c7473bae0133d22265a91e2f]
class Cell--><rect fill="#FEFECE" filter="url(#f1pguv4cgtxmto)" height="176.0469" id="Cell" style="stroke: #A80036; stroke-width: 1.5;" width="204" x="101" y="8"/><ellipse cx="187.25" cy="24" fill="#ADD1B2" rx="11" ry="11" style="stroke: #A80036; stroke-width: 1.0;"/><path d="M189.5938,19.6719 C188.6563,19.2344 188.0625,19.0938 187.1875,19.0938 C184.5625,19.0938 182.5625,21.1719 182.5625,23.8906 L182.5625,25.0156 C182.5625,27.5938 184.6719,29.4844 187.5625,29.4844 C188.7813,29.4844 189.9375,29.1875 190.6875,28.6406 C191.2656,28.2344 191.5938,27.7813 191.5938,27.3906 C191.5938,26.9375 191.2031,26.5469 190.7344,26.5469 C190.5156,26.5469 190.3125,26.625 190.125,26.8125 C189.6719,27.2969 189.6719,27.2969 189.4844,27.3906 C189.0625,27.6563 188.375,27.7813 187.6094,27.7813 C185.5625,27.7813 184.2656,26.6875 184.2656,24.9844 L184.2656,23.8906 C184.2656,22.1094 185.5156,20.7969 187.25,20.7969 C187.8281,20.7969 188.4375,20.9531 188.9063,21.2031 C189.3906,21.4844 189.5625,21.7031 189.6563,22.1094 C189.7188,22.5156 189.75,22.6406 189.8906,22.7656 C190.0313,22.9063 190.2656,23.0156 190.4844,23.0156 C190.75,23.0156 191.0156,22.875 191.1875,22.6563 C191.2969,22.5 191.3281,22.3125 191.3281,21.8906 L191.3281,20.4688 C191.3281,20.0313 191.3125,19.9063 191.2188,19.75 C191.0625,19.4844 190.7813,19.3438 190.4844,19.3438 C190.1875,19.3438 189.9844,19.4375 189.7656,19.75 L189.5938,19.6719 Z "/><text fill="#000000" font-family="sans-serif" font-size="12" lengthAdjust="spacingAndGlyphs" textLength="23" x="207.75" y="28.1543">Cell</text><line style="stroke: #A80036; stroke-width: 1.5;" x1="102" x2="304" y1="40" y2="40"/><text fill="#000000" font-family="sans-serif" font-size="11" lengthAdjust="spacingAndGlyphs" textLength="68" x="107" y="54.2104">self : object</text><text fill="#000000" font-family="sans-serif" font-size="11" lengthAdjust="spacingAndGlyphs" textLength="32" x="107" y="67.0151">x : int</text><text fill="#000000" font-family="sans-serif" font-size="11" lengthAdjust="spacingAndGlyphs" textLength="32" x="107" y="79.8198">y : int</text><line style="stroke: #A80036; stroke-width: 1.5;" x1="102" x2="304" y1="86.4141" y2="86.4141"/><text fill="#000000" font-family="sans-serif" font-size="11" lengthAdjust="spacingAndGlyphs" textLength="190" x="107" y="100.6245">__init__(self, x : int, y : int) : None</text><text fill="#000000" font-family="sans-serif" font-size="11" lengthAdjust="spacingAndGlyphs" textLength="175" x="107" y="113.4292">__eq__(self, other : Cell) : bool</text><text fill="#000000" font-family="sans-serif" font-size="11" lengthAdjust="spacingAndGlyphs" textLength="181" x="107" y="126.2339">__add__(self, move : Cell) : Cell</text><text fill="#000000" font-family="sans-serif" font-size="11" lengthAdjust="spacingAndGlyphs" textLength="167" x="107" y="139.0386">__lt__(self, other : Cell) : bool</text><text fill="#000000" font-family="sans-serif" font-size="11" lengthAdjust="spacingAndGlyphs" textLength="171" x="107" y="151.8433">__gt__(self, other : Cell) : bool</text><text fill="#000000" font-family="sans-serif" font-size="11" lengthAdjust="spacingAndGlyphs" textLength="192" x="107" y="164.6479">__sub__(self, other : Cell) : int, int</text><text fill="#000000" font-family="sans-serif" font-size="11" lengthAdjust="spacingAndGlyphs" textLength="124" x="107" y="177.4526">__repr__(self) : String</text><!--MD5=[a93eece2759162ba693d9a7677009c27]
class Snake--><rect fill="#FEFECE" filter="url(#f1pguv4cgtxmto)" height="137.6328" id="Snake" style="stroke: #A80036; stroke-width: 1.5;" width="198" x="6" y="244"/><ellipse cx="36.3" cy="260" fill="#ADD1B2" rx="11" ry="11" style="stroke: #A80036; stroke-width: 1.0;"/><path d="M38.6438,255.6719 C37.7063,255.2344 37.1125,255.0938 36.2375,255.0938 C33.6125,255.0938 31.6125,257.1719 31.6125,259.8906 L31.6125,261.0156 C31.6125,263.5938 33.7219,265.4844 36.6125,265.4844 C37.8313,265.4844 38.9875,265.1875 39.7375,264.6406 C40.3156,264.2344 40.6438,263.7813 40.6438,263.3906 C40.6438,262.9375 40.2531,262.5469 39.7844,262.5469 C39.5656,262.5469 39.3625,262.625 39.175,262.8125 C38.7219,263.2969 38.7219,263.2969 38.5344,263.3906 C38.1125,263.6563 37.425,263.7813 36.6594,263.7813 C34.6125,263.7813 33.3156,262.6875 33.3156,260.9844 L33.3156,259.8906 C33.3156,258.1094 34.5656,256.7969 36.3,256.7969 C36.8781,256.7969 37.4875,256.9531 37.9563,257.2031 C38.4406,257.4844 38.6125,257.7031 38.7063,258.1094 C38.7688,258.5156 38.8,258.6406 38.9406,258.7656 C39.0813,258.9063 39.3156,259.0156 39.5344,259.0156 C39.8,259.0156 40.0656,258.875 40.2375,258.6563 C40.3469,258.5 40.3781,258.3125 40.3781,257.8906 L40.3781,256.4688 C40.3781,256.0313 40.3625,255.9063 40.2688,255.75 C40.1125,255.4844 39.8313,255.3438 39.5344,255.3438 C39.2375,255.3438 39.0344,255.4375 38.8156,255.75 L38.6438,255.6719 Z "/><text fill="#000000" font-family="sans-serif" font-size="12" lengthAdjust="spacingAndGlyphs" textLength="38" x="53.7" y="264.1543">Snake</text><rect fill="#FFFFFF" height="15.9688" style="stroke: #000000; stroke-width: 1.0; stroke-dasharray: 2.0,2.0;" width="92" x="115" y="241"/><text fill="#000000" font-family="sans-serif" font-size="12" font-style="italic" lengthAdjust="spacingAndGlyphs" textLength="90" x="116" y="253.1387">extends deque</text><line style="stroke: #A80036; stroke-width: 1.5;" x1="7" x2="203" y1="276" y2="276"/><text fill="#000000" font-family="sans-serif" font-size="11" lengthAdjust="spacingAndGlyphs" textLength="70" x="12" y="290.2104">self : deque</text><text fill="#000000" font-family="sans-serif" font-size="11" lengthAdjust="spacingAndGlyphs" textLength="62" x="12" y="303.0151">head : Cell</text><text fill="#000000" font-family="sans-serif" font-size="11" lengthAdjust="spacingAndGlyphs" textLength="56" x="12" y="315.8198">body : list</text><text fill="#000000" font-family="sans-serif" font-size="11" lengthAdjust="spacingAndGlyphs" textLength="45" x="12" y="328.6245">full : list</text><line style="stroke: #A80036; stroke-width: 1.5;" x1="7" x2="203" y1="335.2188" y2="335.2188"/><text fill="#000000" font-family="sans-serif" font-size="11" lengthAdjust="spacingAndGlyphs" textLength="112" x="12" y="349.4292">__init__(self) : None</text><text fill="#000000" font-family="sans-serif" font-size="11" lengthAdjust="spacingAndGlyphs" textLength="186" x="12" y="362.2339">move(self, direction : int) : None</text><text fill="#000000" font-family="sans-serif" font-size="11" lengthAdjust="spacingAndGlyphs" textLength="99" x="12" y="375.0386">grow(self) : None</text><!--MD5=[9ca6abe265fa2179f817d83b5e22eb3b]
class Apple--><rect fill="#FEFECE" filter="url(#f1pguv4cgtxmto)" height="73.6094" id="Apple" style="stroke: #A80036; stroke-width: 1.5;" width="124" x="239" y="276"/><ellipse cx="279.65" cy="292" fill="#ADD1B2" rx="11" ry="11" style="stroke: #A80036; stroke-width: 1.0;"/><path d="M281.9938,287.6719 C281.0563,287.2344 280.4625,287.0938 279.5875,287.0938 C276.9625,287.0938 274.9625,289.1719 274.9625,291.8906 L274.9625,293.0156 C274.9625,295.5938 277.0719,297.4844 279.9625,297.4844 C281.1813,297.4844 282.3375,297.1875 283.0875,296.6406 C283.6656,296.2344 283.9938,295.7813 283.9938,295.3906 C283.9938,294.9375 283.6031,294.5469 283.1344,294.5469 C282.9156,294.5469 282.7125,294.625 282.525,294.8125 C282.0719,295.2969 282.0719,295.2969 281.8844,295.3906 C281.4625,295.6563 280.775,295.7813 280.0094,295.7813 C277.9625,295.7813 276.6656,294.6875 276.6656,292.9844 L276.6656,291.8906 C276.6656,290.1094 277.9156,288.7969 279.65,288.7969 C280.2281,288.7969 280.8375,288.9531 281.3063,289.2031 C281.7906,289.4844 281.9625,289.7031 282.0563,290.1094 C282.1188,290.5156 282.15,290.6406 282.2906,290.7656 C282.4313,290.9063 282.6656,291.0156 282.8844,291.0156 C283.15,291.0156 283.4156,290.875 283.5875,290.6563 C283.6969,290.5 283.7281,290.3125 283.7281,289.8906 L283.7281,288.4688 C283.7281,288.0313 283.7125,287.9063 283.6188,287.75 C283.4625,287.4844 283.1813,287.3438 282.8844,287.3438 C282.5875,287.3438 282.3844,287.4375 282.1656,287.75 L281.9938,287.6719 Z "/><text fill="#000000" font-family="sans-serif" font-size="12" lengthAdjust="spacingAndGlyphs" textLength="35" x="299.35" y="296.1543">Apple</text><line style="stroke: #A80036; stroke-width: 1.5;" x1="240" x2="362" y1="308" y2="308"/><text fill="#000000" font-family="sans-serif" font-size="11" lengthAdjust="spacingAndGlyphs" textLength="55" x="245" y="322.2104">self : Cell</text><line style="stroke: #A80036; stroke-width: 1.5;" x1="240" x2="362" y1="328.8047" y2="328.8047"/><text fill="#000000" font-family="sans-serif" font-size="11" lengthAdjust="spacingAndGlyphs" textLength="112" x="245" y="343.0151">__init__(self) : None</text><!--MD5=[9e56ce77f21be6d81ae6599fa428b6cc]
reverse link Cell to Apple--><path d="M251.185,202.711 C263.174,229.015 275.229,255.462 284.477,275.75 " fill="none" id="Cell&lt;-Apple" style="stroke: #A80036; stroke-width: 1.0;"/><polygon fill="none" points="244.645,205.241,242.719,184.139,257.384,199.434,244.645,205.241" style="stroke: #A80036; stroke-width: 1.0;"/><!--MD5=[36e59e324425c6508fa7edc3043514c6]
link Cell to Snake--><path d="M163.281,184.139 C156.122,199.845 148.689,216.153 141.623,231.654 " fill="none" id="Cell-&gt;Snake" style="stroke: #A80036; stroke-width: 1.0;"/><polygon fill="#A80036" points="136.047,243.887,142.1756,240.087,141.0251,232.9683,134.8964,236.7683,136.047,243.887" style="stroke: #A80036; stroke-width: 1.0;"/><!--MD5=[213b51b5aaed18fc90359c8d6ff1bf21]
@startuml
class Cell {
self : object
x : int
y : int
__init__(self, x : int, y : int) : None
__eq__(self, other : Cell) : bool
__add__(self, move : Cell) : Cell
__lt__(self, other : Cell) : bool
__gt__(self, other : Cell) : bool
__sub__(self, other : Cell) : int, int
__repr__(self) : String
}

class Snake <extends deque> {
self : deque
head : Cell
body : list
full : list
__init__(self) : None
move(self, direction : int) : None
grow(self) : None
}

class Apple {
self : Cell
__init__(self) : None
}

Cell <|- - Apple
Snake *-Up- Cell
@enduml

PlantUML version 1.2020.09beta14(Unknown compile time)
(GPL source distribution)
Java Runtime: Java(TM) SE Runtime Environment
JVM: Java HotSpot(TM) 64-Bit Server VM
Java Version: 14.0.1+7
Operating System: Linux
Default Encoding: UTF-8
Language: en
Country: US
--></g></svg>