<?xml version="1.0" encoding="UTF-8" standalone="no"?><svg xmlns="http://www.w3.org/2000/svg" xmlns:xlink="http://www.w3.org/1999/xlink" contentScriptType="application/ecmascript" contentStyleType="text/css" height="1335px" preserveAspectRatio="none" style="width:543px;height:1335px;" version="1.1" viewBox="0 0 543 1335" width="543px" zoomAndPan="magnify"><defs><filter height="300%" id="f1q8kunnw5e61j" width="300%" x="-1" y="-1"><feGaussianBlur result="blurOut" stdDeviation="2.0"/><feColorMatrix in="blurOut" result="blurOut2" type="matrix" values="0 0 0 0 0 0 0 0 0 0 0 0 0 0 0 0 0 0 .4 0"/><feOffset dx="4.0" dy="4.0" in="blurOut2" result="blurOut3"/><feBlend in="SourceGraphic" in2="blurOut3" mode="normal"/></filter></defs><g><ellipse cx="264.75" cy="20" fill="#000000" filter="url(#f1q8kunnw5e61j)" rx="10" ry="10" style="stroke: none; stroke-width: 1.0;"/><rect fill="#FEFECE" filter="url(#f1q8kunnw5e61j)" height="33.9688" rx="12.5" ry="12.5" style="stroke: #A80036; stroke-width: 1.5;" width="127" x="201.25" y="50"/><text fill="#000000" font-family="sans-serif" font-size="12" lengthAdjust="spacingAndGlyphs" textLength="107" x="211.25" y="71.1387">Generate q table</text><rect fill="#FEFECE" filter="url(#f1q8kunnw5e61j)" height="33.9688" rx="12.5" ry="12.5" style="stroke: #A80036; stroke-width: 1.5;" width="199" x="165.25" y="215.3896"/><text fill="#000000" font-family="sans-serif" font-size="12" lengthAdjust="spacingAndGlyphs" textLength="179" x="175.25" y="236.5283">Generate observation space</text><polygon fill="#FEFECE" filter="url(#f1q8kunnw5e61j)" points="204.25,269.3584,325.25,269.3584,337.25,281.3584,325.25,293.3584,204.25,293.3584,192.25,281.3584,204.25,269.3584" style="stroke: #A80036; stroke-width: 1.5;"/><text fill="#000000" font-family="sans-serif" font-size="11" lengthAdjust="spacingAndGlyphs" textLength="121" x="204.25" y="285.1665">Greater than epsilon</text><text fill="#000000" font-family="sans-serif" font-size="11" lengthAdjust="spacingAndGlyphs" textLength="22" x="170.25" y="278.7642">Yes</text><text fill="#000000" font-family="sans-serif" font-size="11" lengthAdjust="spacingAndGlyphs" textLength="15" x="337.25" y="278.7642">No</text><rect fill="#FEFECE" filter="url(#f1q8kunnw5e61j)" height="33.9688" rx="12.5" ry="12.5" style="stroke: #A80036; stroke-width: 1.5;" width="108" x="128.25" y="303.3584"/><text fill="#000000" font-family="sans-serif" font-size="12" lengthAdjust="spacingAndGlyphs" textLength="88" x="138.25" y="324.4971">Q table action</text><rect fill="#FEFECE" filter="url(#f1q8kunnw5e61j)" height="33.9688" rx="12.5" ry="12.5" style="stroke: #A80036; stroke-width: 1.5;" width="113" x="290.75" y="303.3584"/><text fill="#000000" font-family="sans-serif" font-size="12" lengthAdjust="spacingAndGlyphs" textLength="93" x="300.75" y="324.4971">Random action</text><polygon fill="#FEFECE" filter="url(#f1q8kunnw5e61j)" points="264.75,343.3271,276.75,355.3271,264.75,367.3271,252.75,355.3271,264.75,343.3271" style="stroke: #A80036; stroke-width: 1.5;"/><rect fill="#FEFECE" filter="url(#f1q8kunnw5e61j)" height="33.9688" rx="12.5" ry="12.5" style="stroke: #A80036; stroke-width: 1.5;" width="94" x="217.75" y="387.3271"/><text fill="#000000" font-family="sans-serif" font-size="12" lengthAdjust="spacingAndGlyphs" textLength="74" x="227.75" y="408.4658">Move snake</text><polygon fill="#FEFECE" filter="url(#f1q8kunnw5e61j)" points="92.25,441.2959,187.25,441.2959,199.25,453.2959,187.25,465.2959,92.25,465.2959,80.25,453.2959,92.25,441.2959" style="stroke: #A80036; stroke-width: 1.5;"/><text fill="#000000" font-family="sans-serif" font-size="11" lengthAdjust="spacingAndGlyphs" textLength="22" x="143.75" y="475.5063">Yes</text><text fill="#000000" font-family="sans-serif" font-size="11" lengthAdjust="spacingAndGlyphs" textLength="95" x="92.25" y="457.104">Snake ate apple</text><rect fill="#FEFECE" filter="url(#f1q8kunnw5e61j)" height="33.9688" rx="12.5" ry="12.5" style="stroke: #A80036; stroke-width: 1.5;" width="99" x="90.25" y="498.1006"/><text fill="#000000" font-family="sans-serif" font-size="12" lengthAdjust="spacingAndGlyphs" textLength="79" x="100.25" y="519.2393">Food reward</text><polygon fill="#FEFECE" filter="url(#f1q8kunnw5e61j)" points="240.25,441.2959,305.25,441.2959,317.25,453.2959,305.25,465.2959,240.25,465.2959,228.25,453.2959,240.25,441.2959" style="stroke: #A80036; stroke-width: 1.5;"/><text fill="#000000" font-family="sans-serif" font-size="11" lengthAdjust="spacingAndGlyphs" textLength="22" x="276.75" y="475.5063">Yes</text><text fill="#000000" font-family="sans-serif" font-size="11" lengthAdjust="spacingAndGlyphs" textLength="65" x="240.25" y="457.104">Snake died</text><text fill="#000000" font-family="sans-serif" font-size="11" lengthAdjust="spacingAndGlyphs" textLength="43" x="317.25" y="450.7017">Nothing</text><rect fill="#FEFECE" filter="url(#f1q8kunnw5e61j)" height="33.9688" rx="12.5" ry="12.5" style="stroke: #A80036; stroke-width: 1.5;" width="107" x="219.25" y="498.1006"/><text fill="#000000" font-family="sans-serif" font-size="12" lengthAdjust="spacingAndGlyphs" textLength="87" x="229.25" y="519.2393">Death penalty</text><rect fill="#FEFECE" filter="url(#f1q8kunnw5e61j)" height="33.9688" rx="12.5" ry="12.5" style="stroke: #A80036; stroke-width: 1.5;" width="103" x="346.25" y="494.6982"/><text fill="#000000" font-family="sans-serif" font-size="12" lengthAdjust="spacingAndGlyphs" textLength="83" x="356.25" y="515.8369">Move penalty</text><rect fill="#FEFECE" filter="url(#f1q8kunnw5e61j)" height="33.9688" rx="12.5" ry="12.5" style="stroke: #A80036; stroke-width: 1.5;" width="127" x="201.25" y="577.7646"/><text fill="#000000" font-family="sans-serif" font-size="12" lengthAdjust="spacingAndGlyphs" textLength="107" x="211.25" y="598.9033">Genrate q values</text><polygon fill="#FEFECE" filter="url(#f1q8kunnw5e61j)" points="228.75,631.7334,300.75,631.7334,312.75,643.7334,300.75,655.7334,228.75,655.7334,216.75,643.7334,228.75,631.7334" style="stroke: #A80036; stroke-width: 1.5;"/><text fill="#000000" font-family="sans-serif" font-size="11" lengthAdjust="spacingAndGlyphs" textLength="72" x="228.75" y="647.5415">Food reward</text><text fill="#000000" font-family="sans-serif" font-size="11" lengthAdjust="spacingAndGlyphs" textLength="22" x="194.75" y="641.1392">Yes</text><text fill="#000000" font-family="sans-serif" font-size="11" lengthAdjust="spacingAndGlyphs" textLength="15" x="312.75" y="641.1392">No</text><rect fill="#FEFECE" filter="url(#f1q8kunnw5e61j)" height="33.9688" rx="12.5" ry="12.5" style="stroke: #A80036; stroke-width: 1.5;" width="190" x="56" y="665.7334"/><text fill="#000000" font-family="sans-serif" font-size="12" lengthAdjust="spacingAndGlyphs" textLength="170" x="66" y="686.8721">New q value is food reward</text><rect fill="#FEFECE" filter="url(#f1q8kunnw5e61j)" height="33.9688" rx="12.5" ry="12.5" style="stroke: #A80036; stroke-width: 1.5;" width="89" x="106.5" y="719.7021"/><text fill="#000000" font-family="sans-serif" font-size="12" lengthAdjust="spacingAndGlyphs" textLength="69" x="116.5" y="740.8408">Reset food</text><rect fill="#FEFECE" filter="url(#f1q8kunnw5e61j)" height="33.9688" rx="12.5" ry="12.5" style="stroke: #A80036; stroke-width: 1.5;" width="94" x="104" y="773.6709"/><text fill="#000000" font-family="sans-serif" font-size="12" lengthAdjust="spacingAndGlyphs" textLength="74" x="114" y="794.8096">Grow snake</text><rect fill="#FEFECE" filter="url(#f1q8kunnw5e61j)" height="33.9688" rx="12.5" ry="12.5" style="stroke: #A80036; stroke-width: 1.5;" width="225" x="266" y="665.7334"/><text fill="#000000" font-family="sans-serif" font-size="12" lengthAdjust="spacingAndGlyphs" textLength="205" x="276" y="686.8721">Q formula determine new q value</text><polygon fill="#FEFECE" filter="url(#f1q8kunnw5e61j)" points="264.75,813.6396,276.75,825.6396,264.75,837.6396,252.75,825.6396,264.75,813.6396" style="stroke: #A80036; stroke-width: 1.5;"/><polygon fill="#FEFECE" filter="url(#f1q8kunnw5e61j)" points="230.75,159.6792,298.75,159.6792,310.75,171.6792,298.75,183.6792,230.75,183.6792,218.75,171.6792,230.75,159.6792" style="stroke: #A80036; stroke-width: 1.5;"/><text fill="#000000" font-family="sans-serif" font-size="11" lengthAdjust="spacingAndGlyphs" textLength="22" x="268.75" y="193.8896">Yes</text><text fill="#000000" font-family="sans-serif" font-size="11" lengthAdjust="spacingAndGlyphs" textLength="68" x="230.75" y="175.4873">Snake alive</text><text fill="#000000" font-family="sans-serif" font-size="11" lengthAdjust="spacingAndGlyphs" textLength="15" x="203.75" y="169.085">No</text><rect fill="#FEFECE" filter="url(#f1q8kunnw5e61j)" height="33.9688" rx="12.5" ry="12.5" style="stroke: #A80036; stroke-width: 1.5;" width="107" x="211.25" y="879.6396"/><text fill="#000000" font-family="sans-serif" font-size="12" lengthAdjust="spacingAndGlyphs" textLength="87" x="221.25" y="900.7783">Decay epsilon</text><rect fill="#FEFECE" filter="url(#f1q8kunnw5e61j)" height="33.9688" rx="12.5" ry="12.5" style="stroke: #A80036; stroke-width: 1.5;" width="88" x="220.75" y="982.0107"/><text fill="#000000" font-family="sans-serif" font-size="12" lengthAdjust="spacingAndGlyphs" textLength="68" x="230.75" y="1003.1494">Dump data</text><polygon fill="#FEFECE" filter="url(#f1q8kunnw5e61j)" points="251.25,933.6084,278.25,933.6084,290.25,945.6084,278.25,957.6084,251.25,957.6084,239.25,945.6084,251.25,933.6084" style="stroke: #A80036; stroke-width: 1.5;"/><text fill="#000000" font-family="sans-serif" font-size="11" lengthAdjust="spacingAndGlyphs" textLength="22" x="268.75" y="967.8188">Yes</text><text fill="#000000" font-family="sans-serif" font-size="11" lengthAdjust="spacingAndGlyphs" textLength="27" x="251.25" y="949.4165">Data</text><text fill="#000000" font-family="sans-serif" font-size="11" lengthAdjust="spacingAndGlyphs" textLength="15" x="290.25" y="943.0142">No</text><polygon fill="#FEFECE" filter="url(#f1q8kunnw5e61j)" points="264.75,1035.9795,276.75,1047.9795,264.75,1059.9795,252.75,1047.9795,264.75,1035.9795" style="stroke: #A80036; stroke-width: 1.5;"/><rect fill="#FEFECE" filter="url(#f1q8kunnw5e61j)" height="33.9688" rx="12.5" ry="12.5" style="stroke: #A80036; stroke-width: 1.5;" width="84" x="222.75" y="1128.3818"/><text fill="#000000" font-family="sans-serif" font-size="12" lengthAdjust="spacingAndGlyphs" textLength="64" x="232.75" y="1149.5205">Print stats</text><polygon fill="#FEFECE" filter="url(#f1q8kunnw5e61j)" points="249.75,1079.9795,279.75,1079.9795,291.75,1091.9795,279.75,1103.9795,249.75,1103.9795,237.75,1091.9795,249.75,1079.9795" style="stroke: #A80036; stroke-width: 1.5;"/><text fill="#000000" font-family="sans-serif" font-size="11" lengthAdjust="spacingAndGlyphs" textLength="22" x="268.75" y="1114.1899">Yes</text><text fill="#000000" font-family="sans-serif" font-size="11" lengthAdjust="spacingAndGlyphs" textLength="30" x="249.75" y="1095.7876">Stats</text><text fill="#000000" font-family="sans-serif" font-size="11" lengthAdjust="spacingAndGlyphs" textLength="15" x="291.75" y="1089.3853">No</text><polygon fill="#FEFECE" filter="url(#f1q8kunnw5e61j)" points="264.75,1182.3506,276.75,1194.3506,264.75,1206.3506,252.75,1194.3506,264.75,1182.3506" style="stroke: #A80036; stroke-width: 1.5;"/><polygon fill="#FEFECE" filter="url(#f1q8kunnw5e61j)" points="225.25,103.9688,304.25,103.9688,316.25,115.9688,304.25,127.9688,225.25,127.9688,213.25,115.9688,225.25,103.9688" style="stroke: #A80036; stroke-width: 1.5;"/><text fill="#000000" font-family="sans-serif" font-size="11" lengthAdjust="spacingAndGlyphs" textLength="22" x="268.75" y="138.1792">Yes</text><text fill="#000000" font-family="sans-serif" font-size="11" lengthAdjust="spacingAndGlyphs" textLength="79" x="225.25" y="119.7769">Still episodes</text><text fill="#000000" font-family="sans-serif" font-size="11" lengthAdjust="spacingAndGlyphs" textLength="15" x="198.25" y="113.3745">No</text><rect fill="#FEFECE" filter="url(#f1q8kunnw5e61j)" height="33.9688" rx="12.5" ry="12.5" style="stroke: #A80036; stroke-width: 1.5;" width="119" x="205.25" y="1248.3506"/><text fill="#000000" font-family="sans-serif" font-size="12" lengthAdjust="spacingAndGlyphs" textLength="99" x="215.25" y="1269.4893">Generate graph</text><ellipse cx="264.75" cy="1313.3193" fill="#FFFFFF" filter="url(#f1q8kunnw5e61j)" rx="11" ry="11" style="stroke: #000000; stroke-width: 1.0;"/><ellipse cx="264.75" cy="1313.3193" fill="#000000" rx="6" ry="6" style="stroke: #7F7F7F; stroke-width: 1.0;"/><line style="stroke: #A80036; stroke-width: 1.5;" x1="264.75" x2="264.75" y1="30" y2="50"/><polygon fill="#A80036" points="260.75,40,264.75,50,268.75,40,264.75,44" style="stroke: #A80036; stroke-width: 1.0;"/><line style="stroke: #A80036; stroke-width: 1.5;" x1="192.25" x2="182.25" y1="281.3584" y2="281.3584"/><line style="stroke: #A80036; stroke-width: 1.5;" x1="182.25" x2="182.25" y1="281.3584" y2="303.3584"/><polygon fill="#A80036" points="178.25,293.3584,182.25,303.3584,186.25,293.3584,182.25,297.3584" style="stroke: #A80036; stroke-width: 1.0;"/><line style="stroke: #A80036; stroke-width: 1.5;" x1="337.25" x2="347.25" y1="281.3584" y2="281.3584"/><line style="stroke: #A80036; stroke-width: 1.5;" x1="347.25" x2="347.25" y1="281.3584" y2="303.3584"/><polygon fill="#A80036" points="343.25,293.3584,347.25,303.3584,351.25,293.3584,347.25,297.3584" style="stroke: #A80036; stroke-width: 1.0;"/><line style="stroke: #A80036; stroke-width: 1.5;" x1="182.25" x2="182.25" y1="337.3271" y2="355.3271"/><line style="stroke: #A80036; stroke-width: 1.5;" x1="182.25" x2="252.75" y1="355.3271" y2="355.3271"/><polygon fill="#A80036" points="242.75,351.3271,252.75,355.3271,242.75,359.3271,246.75,355.3271" style="stroke: #A80036; stroke-width: 1.0;"/><line style="stroke: #A80036; stroke-width: 1.5;" x1="347.25" x2="347.25" y1="337.3271" y2="355.3271"/><line style="stroke: #A80036; stroke-width: 1.5;" x1="347.25" x2="276.75" y1="355.3271" y2="355.3271"/><polygon fill="#A80036" points="286.75,351.3271,276.75,355.3271,286.75,359.3271,282.75,355.3271" style="stroke: #A80036; stroke-width: 1.0;"/><line style="stroke: #A80036; stroke-width: 1.5;" x1="264.75" x2="264.75" y1="249.3584" y2="269.3584"/><polygon fill="#A80036" points="260.75,259.3584,264.75,269.3584,268.75,259.3584,264.75,263.3584" style="stroke: #A80036; stroke-width: 1.0;"/><line style="stroke: #A80036; stroke-width: 1.5;" x1="264.75" x2="264.75" y1="367.3271" y2="387.3271"/><polygon fill="#A80036" points="260.75,377.3271,264.75,387.3271,268.75,377.3271,264.75,381.3271" style="stroke: #A80036; stroke-width: 1.0;"/><line style="stroke: #A80036; stroke-width: 1.5;" x1="139.75" x2="139.75" y1="465.2959" y2="498.1006"/><polygon fill="#A80036" points="135.75,488.1006,139.75,498.1006,143.75,488.1006,139.75,492.1006" style="stroke: #A80036; stroke-width: 1.0;"/><line style="stroke: #A80036; stroke-width: 1.5;" x1="139.75" x2="139.75" y1="532.0693" y2="557.7646"/><polygon fill="#A80036" points="135.75,547.7646,139.75,557.7646,143.75,547.7646,139.75,551.7646" style="stroke: #A80036; stroke-width: 1.0;"/><line style="stroke: #A80036; stroke-width: 1.5;" x1="272.75" x2="272.75" y1="465.2959" y2="498.1006"/><polygon fill="#A80036" points="268.75,488.1006,272.75,498.1006,276.75,488.1006,272.75,492.1006" style="stroke: #A80036; stroke-width: 1.0;"/><line style="stroke: #A80036; stroke-width: 1.5;" x1="272.75" x2="272.75" y1="532.0693" y2="557.7646"/><polygon fill="#A80036" points="268.75,547.7646,272.75,557.7646,276.75,547.7646,272.75,551.7646" style="stroke: #A80036; stroke-width: 1.0;"/><line style="stroke: #A80036; stroke-width: 1.5;" x1="199.25" x2="228.25" y1="453.2959" y2="453.2959"/><polygon fill="#A80036" points="218.25,449.2959,228.25,453.2959,218.25,457.2959,222.25,453.2959" style="stroke: #A80036; stroke-width: 1.0;"/><line style="stroke: #A80036; stroke-width: 1.5;" x1="264.75" x2="264.75" y1="421.2959" y2="426.2959"/><line style="stroke: #A80036; stroke-width: 1.5;" x1="264.75" x2="139.75" y1="426.2959" y2="426.2959"/><line style="stroke: #A80036; stroke-width: 1.5;" x1="139.75" x2="139.75" y1="426.2959" y2="441.2959"/><polygon fill="#A80036" points="135.75,431.2959,139.75,441.2959,143.75,431.2959,139.75,435.2959" style="stroke: #A80036; stroke-width: 1.0;"/><line style="stroke: #A80036; stroke-width: 1.5;" x1="317.25" x2="397.75" y1="453.2959" y2="453.2959"/><line style="stroke: #A80036; stroke-width: 1.5;" x1="397.75" x2="397.75" y1="453.2959" y2="494.6982"/><polygon fill="#A80036" points="393.75,484.6982,397.75,494.6982,401.75,484.6982,397.75,488.6982" style="stroke: #A80036; stroke-width: 1.0;"/><line style="stroke: #A80036; stroke-width: 1.5;" x1="397.75" x2="397.75" y1="528.667" y2="557.7646"/><polygon fill="#A80036" points="393.75,547.7646,397.75,557.7646,401.75,547.7646,397.75,551.7646" style="stroke: #A80036; stroke-width: 1.0;"/><line style="stroke: #A80036; stroke-width: 1.5;" x1="139.75" x2="397.75" y1="557.7646" y2="557.7646"/><line style="stroke: #A80036; stroke-width: 1.5;" x1="264.75" x2="264.75" y1="557.7646" y2="577.7646"/><polygon fill="#A80036" points="260.75,567.7646,264.75,577.7646,268.75,567.7646,264.75,571.7646" style="stroke: #A80036; stroke-width: 1.0;"/><line style="stroke: #A80036; stroke-width: 1.5;" x1="151" x2="151" y1="699.7021" y2="719.7021"/><polygon fill="#A80036" points="147,709.7021,151,719.7021,155,709.7021,151,713.7021" style="stroke: #A80036; stroke-width: 1.0;"/><line style="stroke: #A80036; stroke-width: 1.5;" x1="151" x2="151" y1="753.6709" y2="773.6709"/><polygon fill="#A80036" points="147,763.6709,151,773.6709,155,763.6709,151,767.6709" style="stroke: #A80036; stroke-width: 1.0;"/><line style="stroke: #A80036; stroke-width: 1.5;" x1="216.75" x2="151" y1="643.7334" y2="643.7334"/><line style="stroke: #A80036; stroke-width: 1.5;" x1="151" x2="151" y1="643.7334" y2="665.7334"/><polygon fill="#A80036" points="147,655.7334,151,665.7334,155,655.7334,151,659.7334" style="stroke: #A80036; stroke-width: 1.0;"/><line style="stroke: #A80036; stroke-width: 1.5;" x1="312.75" x2="378.5" y1="643.7334" y2="643.7334"/><line style="stroke: #A80036; stroke-width: 1.5;" x1="378.5" x2="378.5" y1="643.7334" y2="665.7334"/><polygon fill="#A80036" points="374.5,655.7334,378.5,665.7334,382.5,655.7334,378.5,659.7334" style="stroke: #A80036; stroke-width: 1.0;"/><line style="stroke: #A80036; stroke-width: 1.5;" x1="151" x2="151" y1="807.6396" y2="825.6396"/><line style="stroke: #A80036; stroke-width: 1.5;" x1="151" x2="252.75" y1="825.6396" y2="825.6396"/><polygon fill="#A80036" points="242.75,821.6396,252.75,825.6396,242.75,829.6396,246.75,825.6396" style="stroke: #A80036; stroke-width: 1.0;"/><line style="stroke: #A80036; stroke-width: 1.5;" x1="378.5" x2="378.5" y1="699.7021" y2="825.6396"/><line style="stroke: #A80036; stroke-width: 1.5;" x1="378.5" x2="276.75" y1="825.6396" y2="825.6396"/><polygon fill="#A80036" points="286.75,821.6396,276.75,825.6396,286.75,829.6396,282.75,825.6396" style="stroke: #A80036; stroke-width: 1.0;"/><line style="stroke: #A80036; stroke-width: 1.5;" x1="264.75" x2="264.75" y1="611.7334" y2="631.7334"/><polygon fill="#A80036" points="260.75,621.7334,264.75,631.7334,268.75,621.7334,264.75,625.7334" style="stroke: #A80036; stroke-width: 1.0;"/><line style="stroke: #A80036; stroke-width: 1.5;" x1="264.75" x2="264.75" y1="183.6792" y2="215.3896"/><polygon fill="#A80036" points="260.75,205.3896,264.75,215.3896,268.75,205.3896,264.75,209.3896" style="stroke: #A80036; stroke-width: 1.0;"/><line style="stroke: #A80036; stroke-width: 1.5;" x1="264.75" x2="264.75" y1="837.6396" y2="847.6396"/><line style="stroke: #A80036; stroke-width: 1.5;" x1="264.75" x2="505" y1="847.6396" y2="847.6396"/><polygon fill="#A80036" points="501,537.7646,505,527.7646,509,537.7646,505,533.7646" style="stroke: #A80036; stroke-width: 1.5;"/><line style="stroke: #A80036; stroke-width: 1.5;" x1="505" x2="505" y1="171.6792" y2="847.6396"/><line style="stroke: #A80036; stroke-width: 1.5;" x1="505" x2="310.75" y1="171.6792" y2="171.6792"/><polygon fill="#A80036" points="320.75,167.6792,310.75,171.6792,320.75,175.6792,316.75,171.6792" style="stroke: #A80036; stroke-width: 1.0;"/><line style="stroke: #A80036; stroke-width: 1.5;" x1="218.75" x2="42" y1="171.6792" y2="171.6792"/><polygon fill="#A80036" points="38,523.7646,42,533.7646,46,523.7646,42,527.7646" style="stroke: #A80036; stroke-width: 1.5;"/><line style="stroke: #A80036; stroke-width: 1.5;" x1="42" x2="42" y1="171.6792" y2="859.6396"/><line style="stroke: #A80036; stroke-width: 1.5;" x1="42" x2="264.75" y1="859.6396" y2="859.6396"/><line style="stroke: #A80036; stroke-width: 1.5;" x1="264.75" x2="264.75" y1="859.6396" y2="879.6396"/><polygon fill="#A80036" points="260.75,869.6396,264.75,879.6396,268.75,869.6396,264.75,873.6396" style="stroke: #A80036; stroke-width: 1.0;"/><line style="stroke: #A80036; stroke-width: 1.5;" x1="264.75" x2="264.75" y1="957.6084" y2="982.0107"/><polygon fill="#A80036" points="260.75,972.0107,264.75,982.0107,268.75,972.0107,264.75,976.0107" style="stroke: #A80036; stroke-width: 1.0;"/><line style="stroke: #A80036; stroke-width: 1.5;" x1="290.25" x2="318.75" y1="945.6084" y2="945.6084"/><polygon fill="#A80036" points="314.75,988.9951,318.75,998.9951,322.75,988.9951,318.75,992.9951" style="stroke: #A80036; stroke-width: 1.5;"/><line style="stroke: #A80036; stroke-width: 1.5;" x1="318.75" x2="318.75" y1="945.6084" y2="1047.9795"/><line style="stroke: #A80036; stroke-width: 1.5;" x1="318.75" x2="276.75" y1="1047.9795" y2="1047.9795"/><polygon fill="#A80036" points="286.75,1043.9795,276.75,1047.9795,286.75,1051.9795,282.75,1047.9795" style="stroke: #A80036; stroke-width: 1.0;"/><line style="stroke: #A80036; stroke-width: 1.5;" x1="264.75" x2="264.75" y1="1015.9795" y2="1035.9795"/><polygon fill="#A80036" points="260.75,1025.9795,264.75,1035.9795,268.75,1025.9795,264.75,1029.9795" style="stroke: #A80036; stroke-width: 1.0;"/><line style="stroke: #A80036; stroke-width: 1.5;" x1="264.75" x2="264.75" y1="913.6084" y2="933.6084"/><polygon fill="#A80036" points="260.75,923.6084,264.75,933.6084,268.75,923.6084,264.75,927.6084" style="stroke: #A80036; stroke-width: 1.0;"/><line style="stroke: #A80036; stroke-width: 1.5;" x1="264.75" x2="264.75" y1="1103.9795" y2="1128.3818"/><polygon fill="#A80036" points="260.75,1118.3818,264.75,1128.3818,268.75,1118.3818,264.75,1122.3818" style="stroke: #A80036; stroke-width: 1.0;"/><line style="stroke: #A80036; stroke-width: 1.5;" x1="291.75" x2="316.75" y1="1091.9795" y2="1091.9795"/><polygon fill="#A80036" points="312.75,1135.3662,316.75,1145.3662,320.75,1135.3662,316.75,1139.3662" style="stroke: #A80036; stroke-width: 1.5;"/><line style="stroke: #A80036; stroke-width: 1.5;" x1="316.75" x2="316.75" y1="1091.9795" y2="1194.3506"/><line style="stroke: #A80036; stroke-width: 1.5;" x1="316.75" x2="276.75" y1="1194.3506" y2="1194.3506"/><polygon fill="#A80036" points="286.75,1190.3506,276.75,1194.3506,286.75,1198.3506,282.75,1194.3506" style="stroke: #A80036; stroke-width: 1.0;"/><line style="stroke: #A80036; stroke-width: 1.5;" x1="264.75" x2="264.75" y1="1162.3506" y2="1182.3506"/><polygon fill="#A80036" points="260.75,1172.3506,264.75,1182.3506,268.75,1172.3506,264.75,1176.3506" style="stroke: #A80036; stroke-width: 1.0;"/><line style="stroke: #A80036; stroke-width: 1.5;" x1="264.75" x2="264.75" y1="1059.9795" y2="1079.9795"/><polygon fill="#A80036" points="260.75,1069.9795,264.75,1079.9795,268.75,1069.9795,264.75,1073.9795" style="stroke: #A80036; stroke-width: 1.0;"/><line style="stroke: #A80036; stroke-width: 1.5;" x1="264.75" x2="264.75" y1="127.9688" y2="159.6792"/><polygon fill="#A80036" points="260.75,149.6792,264.75,159.6792,268.75,149.6792,264.75,153.6792" style="stroke: #A80036; stroke-width: 1.0;"/><line style="stroke: #A80036; stroke-width: 1.5;" x1="264.75" x2="264.75" y1="1206.3506" y2="1216.3506"/><line style="stroke: #A80036; stroke-width: 1.5;" x1="264.75" x2="517" y1="1216.3506" y2="1216.3506"/><polygon fill="#A80036" points="513,640.3154,517,630.3154,521,640.3154,517,636.3154" style="stroke: #A80036; stroke-width: 1.5;"/><line style="stroke: #A80036; stroke-width: 1.5;" x1="517" x2="517" y1="115.9688" y2="1216.3506"/><line style="stroke: #A80036; stroke-width: 1.5;" x1="517" x2="316.25" y1="115.9688" y2="115.9688"/><polygon fill="#A80036" points="326.25,111.9688,316.25,115.9688,326.25,119.9688,322.25,115.9688" style="stroke: #A80036; stroke-width: 1.0;"/><line style="stroke: #A80036; stroke-width: 1.5;" x1="213.25" x2="24" y1="115.9688" y2="115.9688"/><polygon fill="#A80036" points="20,626.3154,24,636.3154,28,626.3154,24,630.3154" style="stroke: #A80036; stroke-width: 1.5;"/><line style="stroke: #A80036; stroke-width: 1.5;" x1="24" x2="24" y1="115.9688" y2="1228.3506"/><line style="stroke: #A80036; stroke-width: 1.5;" x1="24" x2="264.75" y1="1228.3506" y2="1228.3506"/><line style="stroke: #A80036; stroke-width: 1.5;" x1="264.75" x2="264.75" y1="1228.3506" y2="1248.3506"/><polygon fill="#A80036" points="260.75,1238.3506,264.75,1248.3506,268.75,1238.3506,264.75,1242.3506" style="stroke: #A80036; stroke-width: 1.0;"/><line style="stroke: #A80036; stroke-width: 1.5;" x1="264.75" x2="264.75" y1="83.9688" y2="103.9688"/><polygon fill="#A80036" points="260.75,93.9688,264.75,103.9688,268.75,93.9688,264.75,97.9688" style="stroke: #A80036; stroke-width: 1.0;"/><line style="stroke: #A80036; stroke-width: 1.5;" x1="264.75" x2="264.75" y1="1282.3193" y2="1302.3193"/><polygon fill="#A80036" points="260.75,1292.3193,264.75,1302.3193,268.75,1292.3193,264.75,1296.3193" style="stroke: #A80036; stroke-width: 1.0;"/><!--MD5=[964995dd2c03aacfa60c6252c55e0fad]
@startuml
start
:Generate q table;
while (Still episodes) is (Yes) 
while (Snake alive) is (Yes)
:Generate observation space;
if (Greater than epsilon) then (Yes)
  :Q table action;
else (No)
  :Random action;
endif
:Move snake;
if (Snake ate apple) then (Yes)
  :Food reward;
elseif (Snake died) then (Yes)
  :Death penalty;
else (Nothing)
  :Move penalty;
endif
:Genrate q values;
if (Food reward) then (Yes)
  :New q value is food reward;
  :Reset food;
  :Grow snake;
else (No)
  :Q formula determine new q value;
endif
endwhile (No)
:Decay epsilon;
if (Data) then (Yes)
  :Dump data;
else (No)
endif
if (Stats) then (Yes)
  :Print stats;
else (No)
endif
endwhile (No)
:Generate graph;
stop
@enduml

PlantUML version 1.2020.09beta14(Unknown compile time)
(GPL source distribution)
Java Runtime: Java(TM) SE Runtime Environment
JVM: Java HotSpot(TM) 64-Bit Server VM
Java Version: 14.0.1+7
Operating System: Linux
Default Encoding: UTF-8
Language: en
Country: US
--></g></svg>